<?xml version="1.0" encoding="utf-8"?>
<!-- Generator: Adobe Illustrator 22.1.0, SVG Export Plug-In . SVG Version: 6.00 Build 0)  -->
<svg version="1.1" id="Ebene_1" xmlns="http://www.w3.org/2000/svg" xmlns:xlink="http://www.w3.org/1999/xlink" x="0px" y="0px"
	 viewBox="0 0 309.3 85" style="enable-background:new 0 0 309.3 85;" xml:space="preserve">
<style type="text/css">
	.st0{fill:#BCCF00;}
	.st1{fill:#008778;}
	.st2{fill:#152F4E;}
	.st3{fill:#FFFFFF;}
</style>
<g>
	<circle class="st0" cx="42.5" cy="42.5" r="37"/>
</g>
<g>
	<path class="st1" d="M42.5,85C19.1,85,0,66,0,42.5S19.1,0,42.5,0c18,0,34.1,11.4,40.1,28.3c0.1,0.4-0.1,0.8-0.4,0.9
		c-0.4,0.1-0.8-0.1-0.9-0.4C75.5,12.4,59.9,1.4,42.5,1.4C19.8,1.4,1.4,19.8,1.4,42.5s18.4,41.1,41.1,41.1c17.4,0,33-11,38.8-27.4
		c0.1-0.4,0.5-0.6,0.9-0.4c0.4,0.1,0.6,0.5,0.4,0.9C76.6,73.7,60.5,85,42.5,85z"/>
</g>
<g>
	<path class="st2" d="M42.5,75.3C30,75.3,18.4,68.1,13,56.8c-0.2-0.3,0-0.8,0.3-0.9c0.3-0.2,0.8,0,0.9,0.3
		C19.5,67,30.6,73.9,42.5,73.9c17.3,0,31.4-14.1,31.4-31.4S59.8,11.1,42.5,11.1c-12,0-23.1,7-28.3,17.7c-0.2,0.3-0.6,0.5-0.9,0.3
		C13,29,12.8,28.6,13,28.2C18.4,17,30,9.7,42.5,9.7c18.1,0,32.8,14.7,32.8,32.8S60.6,75.3,42.5,75.3z"/>
</g>
<g>
	<path class="st3" d="M42.5,70.5c-15.4,0-27.9-12.5-27.9-27.9s12.5-27.9,27.9-27.9c9.8,0,18.9,5.2,24,13.6c0.2,0.3,0.1,0.8-0.2,1
		c-0.3,0.2-0.8,0.1-1-0.2C60.5,20.9,51.8,16,42.5,16C27.9,16,16,27.9,16,42.5s11.9,26.5,26.5,26.5c9.3,0,18-4.9,22.8-12.9
		c0.2-0.3,0.6-0.4,1-0.2c0.3,0.2,0.4,0.6,0.2,1C61.5,65.2,52.3,70.5,42.5,70.5z"/>
</g>
<g>
	<g>
		<circle class="st2" cx="40.1" cy="26.7" r="0.9"/>
	</g>
	<g>
		<circle class="st2" cx="35.8" cy="26.7" r="0.9"/>
	</g>
	<g>
		<circle class="st2" cx="44.5" cy="26.7" r="0.9"/>
	</g>
	<g>
		<circle class="st2" cx="53.2" cy="26.7" r="0.9"/>
	</g>
	<g>
		<circle class="st2" cx="40.1" cy="31" r="0.9"/>
	</g>
	<g>
		<circle class="st2" cx="35.8" cy="31" r="0.9"/>
	</g>
	<g>
		<circle class="st2" cx="31.4" cy="31" r="0.9"/>
	</g>
	<g>
		<circle class="st2" cx="44.5" cy="31" r="0.9"/>
	</g>
	<g>
		<circle class="st2" cx="48.8" cy="31" r="0.9"/>
	</g>
	<g>
		<circle class="st2" cx="53.2" cy="31" r="0.9"/>
	</g>
	<g>
		<circle class="st2" cx="40.1" cy="35.4" r="0.9"/>
	</g>
	<g>
		<circle class="st2" cx="35.8" cy="35.4" r="0.9"/>
	</g>
	<g>
		<circle class="st2" cx="31.4" cy="35.4" r="0.9"/>
	</g>
	<g>
		<circle class="st2" cx="44.5" cy="35.4" r="0.9"/>
	</g>
	<g>
		<circle class="st2" cx="48.8" cy="35.4" r="0.9"/>
	</g>
	<g>
		<circle class="st2" cx="53.2" cy="35.4" r="0.9"/>
	</g>
	<g>
		<circle class="st2" cx="57.5" cy="35.4" r="0.9"/>
	</g>
	<g>
		<circle class="st2" cx="40.1" cy="39.7" r="0.9"/>
	</g>
	<g>
		<circle class="st2" cx="35.8" cy="39.7" r="0.9"/>
	</g>
	<g>
		<circle class="st2" cx="31.4" cy="39.7" r="0.9"/>
	</g>
	<g>
		<circle class="st2" cx="44.5" cy="39.7" r="0.9"/>
	</g>
	<g>
		<circle class="st2" cx="48.8" cy="39.7" r="0.9"/>
	</g>
	<g>
		<circle class="st2" cx="53.2" cy="39.7" r="0.9"/>
	</g>
	<g>
		<circle class="st2" cx="57.5" cy="39.7" r="0.9"/>
	</g>
	<g>
		<circle class="st2" cx="40.1" cy="44.1" r="0.9"/>
	</g>
	<g>
		<circle class="st2" cx="35.8" cy="44.1" r="0.9"/>
	</g>
	<g>
		<circle class="st2" cx="31.4" cy="44.1" r="0.9"/>
	</g>
	<g>
		<circle class="st2" cx="27.1" cy="44.1" r="0.9"/>
	</g>
	<g>
		<circle class="st2" cx="44.5" cy="44.1" r="0.9"/>
	</g>
	<g>
		<circle class="st2" cx="48.8" cy="44.1" r="0.9"/>
	</g>
	<g>
		<circle class="st2" cx="53.2" cy="44.1" r="0.9"/>
	</g>
	<g>
		<circle class="st2" cx="40.1" cy="48.4" r="0.9"/>
	</g>
	<g>
		<circle class="st2" cx="35.8" cy="48.4" r="0.9"/>
	</g>
	<g>
		<circle class="st2" cx="31.4" cy="48.4" r="0.9"/>
	</g>
	<g>
		<circle class="st2" cx="40.1" cy="52.8" r="0.9"/>
	</g>
	<g>
		<circle class="st2" cx="35.8" cy="52.8" r="0.9"/>
	</g>
	<g>
		<circle class="st2" cx="31.4" cy="52.8" r="0.9"/>
	</g>
	<g>
		<circle class="st2" cx="40.1" cy="57.1" r="0.9"/>
	</g>
	<g>
		<circle class="st2" cx="35.8" cy="57.1" r="0.9"/>
	</g>
	<g>
		<circle class="st2" cx="31.4" cy="57.1" r="0.9"/>
	</g>
	<g>
		<circle class="st2" cx="27.1" cy="57.1" r="0.9"/>
	</g>
	<g>
		<circle class="st2" cx="44.5" cy="48.4" r="0.9"/>
	</g>
	<g>
		<circle class="st2" cx="48.8" cy="48.4" r="0.9"/>
	</g>
	<g>
		<circle class="st2" cx="53.2" cy="48.4" r="0.9"/>
	</g>
	<g>
		<circle class="st2" cx="57.5" cy="44.1" r="0.9"/>
	</g>
	<g>
		<circle class="st2" cx="61.8" cy="35.4" r="0.9"/>
	</g>
	<g>
		<circle class="st2" cx="37.9" cy="28.9" r="0.9"/>
	</g>
	<g>
		<circle class="st2" cx="42.3" cy="28.9" r="0.9"/>
	</g>
	<g>
		<circle class="st2" cx="46.6" cy="28.9" r="0.9"/>
	</g>
	<g>
		<circle class="st2" cx="51" cy="28.9" r="0.9"/>
	</g>
	<g>
		<circle class="st2" cx="55.3" cy="28.9" r="0.9"/>
	</g>
	<g>
		<circle class="st2" cx="37.9" cy="33.2" r="0.9"/>
	</g>
	<g>
		<circle class="st2" cx="33.6" cy="33.2" r="0.9"/>
	</g>
	<g>
		<circle class="st2" cx="42.3" cy="33.2" r="0.9"/>
	</g>
	<g>
		<circle class="st2" cx="46.6" cy="33.2" r="0.9"/>
	</g>
	<g>
		<circle class="st2" cx="51" cy="33.2" r="0.9"/>
	</g>
	<g>
		<circle class="st2" cx="55.3" cy="33.2" r="0.9"/>
	</g>
	<g>
		<circle class="st2" cx="37.9" cy="37.6" r="0.9"/>
	</g>
	<g>
		<circle class="st2" cx="33.6" cy="37.6" r="0.9"/>
	</g>
	<g>
		<circle class="st2" cx="42.3" cy="37.6" r="0.9"/>
	</g>
	<g>
		<circle class="st2" cx="46.6" cy="37.6" r="0.9"/>
	</g>
	<g>
		<circle class="st2" cx="51" cy="37.6" r="0.9"/>
	</g>
	<g>
		<circle class="st2" cx="55.3" cy="37.6" r="0.9"/>
	</g>
	<g>
		<circle class="st2" cx="37.9" cy="41.9" r="0.9"/>
	</g>
	<g>
		<circle class="st2" cx="33.6" cy="41.9" r="0.9"/>
	</g>
	<g>
		<circle class="st2" cx="29.2" cy="41.9" r="0.9"/>
	</g>
	<g>
		<circle class="st2" cx="42.3" cy="41.9" r="0.9"/>
	</g>
	<g>
		<circle class="st2" cx="46.6" cy="41.9" r="0.9"/>
	</g>
	<g>
		<circle class="st2" cx="51" cy="41.9" r="0.9"/>
	</g>
	<g>
		<circle class="st2" cx="55.3" cy="41.9" r="0.9"/>
	</g>
	<g>
		<circle class="st2" cx="37.9" cy="46.2" r="0.9"/>
	</g>
	<g>
		<circle class="st2" cx="33.6" cy="46.2" r="0.9"/>
	</g>
	<g>
		<circle class="st2" cx="29.2" cy="46.2" r="0.9"/>
	</g>
	<g>
		<circle class="st2" cx="42.3" cy="46.2" r="0.9"/>
	</g>
	<g>
		<circle class="st2" cx="46.6" cy="46.2" r="0.9"/>
	</g>
	<g>
		<circle class="st2" cx="51" cy="46.2" r="0.9"/>
	</g>
	<g>
		<circle class="st2" cx="37.9" cy="50.6" r="0.9"/>
	</g>
	<g>
		<circle class="st2" cx="33.6" cy="50.6" r="0.9"/>
	</g>
	<g>
		<circle class="st2" cx="29.2" cy="50.6" r="0.9"/>
	</g>
	<g>
		<circle class="st2" cx="42.3" cy="50.6" r="0.9"/>
	</g>
	<g>
		<circle class="st2" cx="37.9" cy="54.9" r="0.9"/>
	</g>
	<g>
		<circle class="st2" cx="33.6" cy="54.9" r="0.9"/>
	</g>
	<g>
		<circle class="st2" cx="29.2" cy="54.9" r="0.9"/>
	</g>
	<g>
		<circle class="st2" cx="29.2" cy="59.3" r="0.9"/>
	</g>
	<g>
		<circle class="st2" cx="42.3" cy="54.9" r="0.9"/>
	</g>
	<g>
		<circle class="st2" cx="46.6" cy="50.6" r="0.9"/>
	</g>
	<g>
		<circle class="st2" cx="51" cy="50.6" r="0.9"/>
	</g>
	<g>
		<circle class="st2" cx="55.3" cy="46.2" r="0.9"/>
	</g>
	<g>
		<circle class="st2" cx="59.7" cy="37.6" r="0.9"/>
	</g>
	<g>
		<circle class="st2" cx="37.9" cy="24.5" r="0.9"/>
	</g>
	<g>
		<circle class="st2" cx="42.3" cy="24.5" r="0.9"/>
	</g>
</g>
<g>
	<path class="st2" d="M202.9,43.2h-4.3c-0.2,0-0.3,0.1-0.4,0.3L194.1,62c-0.1,0.5-0.2,1.1-0.3,1.6c-0.1-0.5-0.2-1.1-0.3-1.6
		l-4.4-18.5c0-0.2-0.2-0.3-0.4-0.3h-3.7c-0.2,0-0.3,0.1-0.4,0.3L180.3,62c-0.1,0.5-0.2,1.1-0.3,1.6c-0.1-0.5-0.2-1.1-0.3-1.6
		l-4.1-18.5c0-0.2-0.2-0.3-0.4-0.3h-4.3c-0.1,0-0.2,0.1-0.3,0.1c-0.1,0.1-0.1,0.2-0.1,0.3l6.8,27.3c0,0.2,0.2,0.3,0.4,0.3h4.2
		c0.2,0,0.3-0.1,0.4-0.3l4.3-17.6c0.1-0.6,0.3-1.2,0.4-1.8c0.1,0.6,0.2,1.2,0.4,1.8l4.3,17.6c0,0.2,0.2,0.3,0.4,0.3h4.2
		c0.2,0,0.3-0.1,0.4-0.3l6.8-27.3c0-0.1,0-0.2-0.1-0.3C203.1,43.2,203,43.2,202.9,43.2z"/>
	<path class="st2" d="M221,50.1h-4.1c-0.2,0-0.4,0.2-0.4,0.4V67c-0.7,0.2-1.9,0.4-3.3,0.4c-2.6,0-3.7-1.1-3.7-3.5V50.5
		c0-0.2-0.2-0.4-0.4-0.4h-4.1c-0.2,0-0.4,0.2-0.4,0.4v13.4c0,5.2,2.8,7.7,8.6,7.7c3,0,6.1-0.6,7.9-1.5c0.1-0.1,0.2-0.2,0.2-0.3V50.5
		C221.3,50.3,221.2,50.1,221,50.1z"/>
	<path class="st2" d="M235.2,49.9c-0.6-0.1-1.3-0.2-2.4-0.2c-2.9,0-5.8,0.5-8,1.5c-0.1,0.1-0.2,0.2-0.2,0.3v19.3
		c0,0.2,0.2,0.4,0.4,0.4h4.1c0.2,0,0.4-0.2,0.4-0.4V54.2c0.7-0.3,1.8-0.4,2.8-0.4c0.7,0,1.4,0.1,2,0.2c0,0,0.1,0,0.1,0
		c0.1,0,0.1,0,0.2-0.1c0.1-0.1,0.1-0.1,0.2-0.2l0.8-3.4c0-0.1,0-0.2,0-0.3C235.4,50,235.3,49.9,235.2,49.9z"/>
	<path class="st2" d="M253.3,67.1h-8.6l8.7-16.5c0-0.1,0.1-0.1,0.1-0.2c0-0.2-0.2-0.4-0.4-0.4h0h-14.2c-0.2,0-0.4,0.2-0.4,0.4v3.3
		c0,0.2,0.2,0.4,0.4,0.4h7.7l-8.7,16.5c-0.1,0.1-0.1,0.2,0,0.4c0.1,0.1,0.2,0.2,0.3,0.2h15c0.2,0,0.4-0.2,0.4-0.4v-3.3
		C253.6,67.3,253.5,67.1,253.3,67.1z"/>
	<path class="st2" d="M288.6,66.6c0-0.1-0.1-0.2-0.2-0.2c0,0-0.1,0-0.1,0c-0.1,0-0.2,0-0.2,0.1c-0.8,0.6-2,0.9-3.1,0.9
		c-2.2,0-4.8-1.8-4.8-6.8c0-5,2.5-6.8,4.8-6.8c1.1,0,2.3,0.3,3.1,0.9c0.1,0,0.1,0.1,0.2,0.1c0,0,0.1,0,0.1,0c0.1,0,0.2-0.1,0.2-0.2
		l1.4-3c0.1-0.2,0-0.4-0.1-0.5c-1.4-1-3.3-1.5-5.4-1.5c-4.3,0-9.3,2.9-9.3,10.9c0,3.5,1,6.3,2.9,8.3c1.6,1.7,3.9,2.6,6.4,2.6
		c2.2,0,4-0.5,5.4-1.5c0.1-0.1,0.2-0.3,0.1-0.4L288.6,66.6z"/>
	<path class="st2" d="M301.4,49.8c-1.3,0-2.8,0.3-4.2,0.9v-7.2c0-0.2-0.2-0.4-0.4-0.4h-4.1c-0.2,0-0.4,0.2-0.4,0.4v27.3
		c0,0.2,0.2,0.4,0.4,0.4h4.1c0.2,0,0.4-0.2,0.4-0.4V54.6c0.9-0.5,2.2-0.8,3.3-0.8c1.8,0,4,0.6,4,3.5v13.5c0,0.2,0.2,0.4,0.4,0.4h4.1
		c0.2,0,0.4-0.2,0.4-0.4V57C309.3,52.4,306.4,49.8,301.4,49.8z"/>
	<path class="st2" d="M113.7,56.6c2-0.9,3.8-3.2,3.8-6.2c0-4.8-3.8-7.6-10.1-7.6c-2.9,0-5.9,0.5-8,1.5c-0.1,0.1-0.2,0.2-0.2,0.3
		v25.2c0,0.1,0.1,0.3,0.2,0.3c1,0.5,2.5,0.9,4.2,1.1c0,0,0,0,0.1,0c0.1,0,0.2,0,0.2-0.1c0.1-0.1,0.1-0.2,0.1-0.3v-3.5v-9v-3.1v-1.8
		v-6.3c0.9-0.3,2.2-0.5,3.4-0.5c3.5,0,5.4,1.4,5.4,4c0,1.4-0.5,2.6-1.4,3.2c-1,0.7-2,0.9-4.1,0.9h-0.9c-0.2,0-0.4,0.2-0.4,0.4v3.1
		c0,0.2,0.2,0.4,0.4,0.4h1.1c2.2,0,3.1,0.3,4.1,0.9c1.3,0.7,1.9,2,1.9,3.6c0,3.6-3.2,4.4-6,4.4c-0.3,0-0.7,0-1.1-0.1c0,0,0,0,0,0
		c-0.1,0-0.2,0-0.2,0.1c-0.1,0.1-0.1,0.2-0.1,0.3v3.3c0,0.2,0.2,0.4,0.3,0.4c0.4,0,0.8,0,1.2,0c6.9,0,10.9-2.9,10.9-8.1
		C118.3,59.8,116,57.5,113.7,56.6z"/>
	<path class="st2" d="M129.5,49.7c-2.9,0-5.7,0.8-7.2,1.5c-0.2,0.1-0.3,0.3-0.2,0.5l1.1,2.8c0,0.1,0.1,0.2,0.2,0.2c0,0,0.1,0,0.1,0
		c0.1,0,0.1,0,0.2,0c1.3-0.6,3.6-1.2,5.5-1.2c2.7,0,3.9,1,3.9,3.1v0.6v0.7v2.7v4.1v2.8c-0.7,0.2-2,0.4-3.1,0.4
		c-2.8,0-4.4-1.1-4.4-3.1c0-2.2,1.5-3.2,5.2-3.6c0.2,0,0.3-0.2,0.3-0.4V58c0-0.1,0-0.2-0.1-0.3c-0.1-0.1-0.2-0.1-0.2-0.1
		c0,0,0,0,0,0c-4.6,0.5-9.8,1.7-9.8,7.2c0,4.3,3.2,6.7,9.1,6.7c2.8,0,5.9-0.6,7.5-1.5c0.1-0.1,0.2-0.2,0.2-0.3V57
		C137.7,52.1,135,49.7,129.5,49.7z"/>
	<path class="st2" d="M157.5,43.2h-4.1c-0.2,0-0.4,0.2-0.4,0.4V49v1.8v3.1v2.6v10.7c-0.5,0.2-1.6,0.4-2.5,0.4
		c-3.4,0-5.3-2.4-5.3-6.8c0-4.3,2-7,5.3-7c0,0,0.1,0,0.1,0l0.1,0c0,0,0,0,0,0c0.1,0,0.2,0,0.3-0.1c0.1-0.1,0.1-0.2,0.1-0.3v-3.1
		c0-0.2-0.2-0.4-0.3-0.4c-0.2,0-0.4,0-0.6,0c-6.1,0-9.8,4.2-9.8,10.9c0,6.7,3.8,10.8,10.3,10.8c3.1,0,5.9-0.8,7.1-1.5
		c0.1-0.1,0.2-0.2,0.2-0.3V43.5C157.8,43.3,157.7,43.2,157.5,43.2z"/>
	<path class="st2" d="M264.1,49.7c-2.9,0-5.7,0.8-7.2,1.5c-0.2,0.1-0.3,0.3-0.2,0.5l1.1,2.8c0,0.1,0.1,0.2,0.2,0.2c0,0,0.1,0,0.1,0
		c0.1,0,0.1,0,0.2,0c1.3-0.6,3.6-1.2,5.5-1.2c2.7,0,3.9,1,3.9,3.1v0.9v0.4v2.7V65v2.5c-0.7,0.2-2,0.4-3.1,0.4
		c-2.8,0-4.4-1.1-4.4-3.1c0-2.2,1.5-3.2,5.2-3.6c0.2,0,0.3-0.2,0.3-0.4V58c0-0.1,0-0.2-0.1-0.3c-0.1-0.1-0.2-0.1-0.2-0.1
		c0,0,0,0,0,0c-4.6,0.5-9.8,1.7-9.8,7.2c0,4.3,3.2,6.7,9.1,6.7c2.8,0,5.9-0.6,7.5-1.5c0.1-0.1,0.2-0.2,0.2-0.3V57
		C272.2,52.1,269.6,49.7,264.1,49.7z"/>
</g>
<g>
	<path class="st2" d="M105.9,23.7c-2.4-1.1-4.4-2.1-4.4-4.3c0-2.2,1.7-3.6,4.3-3.6c1.4,0,2.9,0.5,3.6,1c0,0,0.1,0,0.1,0
		c0,0,0,0,0.1,0c0,0,0.1-0.1,0.1-0.1l0.7-1.5c0-0.1,0-0.2-0.1-0.2c-1-0.7-2.8-1.1-4.5-1.1c-3.8,0-6.4,2.2-6.4,5.6
		c0,3.4,2.8,4.8,5.6,6.1c2.3,1,4.2,2,4.2,4.2c0,2.4-1.9,4-4.9,4c-1.7,0-3.3-0.5-4.1-1c0,0-0.1,0-0.1,0c0,0,0,0-0.1,0
		c0,0-0.1,0.1-0.1,0.1l-0.7,1.5c0,0.1,0,0.2,0.1,0.2c1.3,0.7,3.1,1.1,5,1.1c4.2,0,7.1-2.4,7.1-5.9C111.3,26.4,108.7,24.9,105.9,23.7
		z"/>
	<path class="st2" d="M119.3,19.5h-3.3v-4.3c0-0.1,0-0.1-0.1-0.2c0,0-0.1,0-0.1,0c0,0,0,0-0.1,0l-1.6,0.6c-0.1,0-0.1,0.1-0.1,0.2
		v3.7h-2.2c-0.1,0-0.2,0.1-0.2,0.2V21c0,0.1,0.1,0.2,0.2,0.2h2.2v10.3c0,2.5,1.5,4.1,4.1,4.1c0.6,0,1-0.1,1.3-0.2
		c0.1,0,0.1-0.1,0.1-0.2v-1.5c0-0.1,0-0.1-0.1-0.1c0,0-0.1,0-0.1,0c0,0,0,0-0.1,0c-0.2,0.1-0.6,0.1-0.9,0.1c-0.7,0-2.4-0.2-2.4-2.3
		V21.2h3.3c0.1,0,0.2-0.1,0.2-0.2v-1.3C119.4,19.6,119.4,19.5,119.3,19.5z"/>
	<path class="st2" d="M157.6,21.2c0.1,0,0.2-0.1,0.2-0.2v-1.3c0-0.1-0.1-0.2-0.2-0.2h-3.3v-4.3c0-0.1,0-0.1-0.1-0.2c0,0-0.1,0-0.1,0
		c0,0,0,0-0.1,0l-1.6,0.6c-0.1,0-0.1,0.1-0.1,0.2v3.7h-2.2c-0.1,0-0.2,0.1-0.2,0.2V21c0,0.1,0.1,0.2,0.2,0.2h2.2v10.3
		c0,2.5,1.5,4.1,4.1,4.1c0.6,0,1-0.1,1.3-0.2c0.1,0,0.1-0.1,0.1-0.2v-1.5c0-0.1,0-0.1-0.1-0.1c0,0-0.1,0-0.1,0c0,0,0,0-0.1,0
		c-0.2,0.1-0.6,0.1-0.9,0.1c-0.7,0-2.4-0.2-2.4-2.3V21.2H157.6z"/>
	<path class="st2" d="M127.2,19.2c-1.8,0-3.8,0.5-4.9,1.1c-0.1,0-0.1,0.1-0.1,0.2l0.5,1.3c0,0,0.1,0.1,0.1,0.1c0,0,0,0,0.1,0
		c0,0,0.1,0,0.1,0c0.9-0.5,2.6-1,4.1-1c2.6,0,3.9,1,3.9,3.2v1.1v0.2v1.3v0.3v6.4c-0.7,0.3-2.1,0.5-3.4,0.5c-2.8,0-4.3-1.1-4.3-3.1
		c0-2.7,2.5-3.5,6.2-3.7c0.1,0,0.2-0.1,0.2-0.2v-1.3c0-0.1,0-0.1-0.1-0.1c0,0-0.1,0-0.1,0c0,0,0,0,0,0c-4,0.3-8.2,1.2-8.2,5.4
		c0,3.1,2.3,4.8,6.3,4.8c1.9,0,4.1-0.5,5.2-1.1c0.1,0,0.1-0.1,0.1-0.2V24.3C132.9,21,131,19.2,127.2,19.2z"/>
	<path class="st2" d="M147.1,12.4h-1.7c-0.1,0-0.2,0.1-0.2,0.2v6.2V20v1.4v0.7v11.3c-0.5,0.3-1.8,0.5-2.8,0.5
		c-3.3,0-5.3-2.3-5.3-6.2c0-4,2-6.5,5.3-6.5c0.4,0,0.8,0,1.3,0.1c0,0,0,0,0,0c0,0,0.1,0,0.1,0c0,0,0.1-0.1,0.1-0.1v-1.4
		c0-0.1-0.1-0.2-0.2-0.2c-0.5-0.1-1-0.1-1.4-0.1c-4.4,0-7.3,3.3-7.3,8.3c0,4.9,2.8,8,7.4,8c1.9,0,3.9-0.6,4.8-1.1
		c0.1,0,0.1-0.1,0.1-0.2V12.6C147.3,12.5,147.2,12.4,147.1,12.4z"/>
</g>
</svg>
